<svg id="Layer_1" data-name="Layer 1" xmlns="http://www.w3.org/2000/svg" xmlns:xlink="http://www.w3.org/1999/xlink" viewBox="0 0 332.69 221.34"><defs><style>.cls-1{fill:none;}.cls-2{clip-path:url(#clip-path);}.cls-3{fill:#1d1d1b;}</style><clipPath id="clip-path" transform="translate(-4.96 -3.54)"><rect class="cls-1" width="340.16" height="240.95"/></clipPath></defs><g class="cls-2"><path d="M310.6,46c-9,0-15.45-7.29-15.45-16v-.14c0-8.75,6.27-15.9,15.31-15.9s15.45,7.29,15.45,16v.15c0,8.74-6.27,15.89-15.31,15.89m-.14,10.35c15.74,0,27.19-11.88,27.19-26.39v-.14c0-14.51-11.3-26.25-27-26.25s-27.19,11.88-27.19,26.39v.15c0,14.5,11.3,26.24,27,26.24m-49.57,0c9.84,0,15.67-3.5,20.92-9.11L274.67,40c-4,3.64-7.58,6-13.42,6-8.74,0-14.79-7.29-14.79-16v-.14c0-8.75,6.19-15.9,14.79-15.9,5.11,0,9.12,2.19,13.05,5.76l7.15-8.23c-4.74-4.67-10.5-7.88-20.12-7.88-15.68,0-26.61,11.88-26.61,26.39v.15c0,14.65,11.15,26.24,26.17,26.24M203.6,46c-9,0-15.46-7.29-15.46-16v-.14c0-8.75,6.27-15.9,15.31-15.9s15.45,7.29,15.45,16v.15c0,8.74-6.27,15.89-15.3,15.89m-.15,10.35c15.75,0,27.19-11.88,27.19-26.39v-.14c0-14.51-11.3-26.25-27-26.25s-27.19,11.88-27.19,26.39v.15c0,14.5,11.29,26.24,27,26.24m-49.57,0c9.84,0,15.67-3.5,20.92-9.11L167.66,40c-4,3.64-7.58,6-13.41,6-8.75,0-14.8-7.29-14.8-16v-.14c0-8.75,6.19-15.9,14.8-15.9,5.1,0,9.11,2.19,13,5.76l7.15-8.23c-4.74-4.67-10.5-7.88-20.12-7.88-15.67,0-26.61,11.88-26.61,26.39v.15c0,14.65,11.16,26.24,26.17,26.24m-44.24-.88h11.22v-51H109.64Zm-52.27,0H68.6V35H89.3V55.44h11.22v-51H89.3V24.61H68.6V4.42H57.37Zm-26.24.88c9.84,0,15.67-3.5,20.92-9.11L44.91,40c-4,3.64-7.58,6-13.42,6-8.74,0-14.79-7.29-14.79-16v-.14c0-8.75,6.19-15.9,14.79-15.9,5.11,0,9.12,2.19,13.05,5.76l7.15-8.23C47,6.75,41.19,3.54,31.57,3.54,15.89,3.54,5,15.42,5,29.93v.15C5,44.73,16.11,56.32,31.13,56.32" transform="translate(-4.96 -3.54)"/><path d="M201.26,102.16c-9,0-15.45-7.29-15.45-16V86c0-8.74,6.27-15.89,15.31-15.89s15.45,7.29,15.45,16v.15c0,8.74-6.27,15.89-15.31,15.89m-.14,10.35c15.74,0,27.19-11.88,27.19-26.39V86c0-14.5-11.3-26.24-27.05-26.24s-27.19,11.88-27.19,26.39v.15c0,14.5,11.3,26.24,27.05,26.24m-43.67-.88h11.23v-51H157.45ZM116.27,101.5V70.74h8.67c9.19,0,15.38,6.34,15.38,15.38v.15c0,9-6.19,15.23-15.38,15.23ZM105,111.63h19.9c16,0,27.12-11.15,27.12-25.51V86c0-14.36-11.08-25.36-27.12-25.36H105ZM68.3,90.28l6.78-16.55,6.78,16.55ZM48.19,111.63H59.63l4.67-11.44H85.87l4.67,11.44h11.73L80.41,60.24H70.05Zm-32-26.24V70.74H27.34c5.47,0,8.82,2.48,8.82,7.29v.15c0,4.3-3.14,7.21-8.6,7.21ZM5,111.63H16.19V95.31H25l10.93,16.32H49.06L36.6,93.41C43.08,91,47.53,85.83,47.53,77.59v-.14c0-4.81-1.53-8.82-4.37-11.67-3.36-3.35-8.39-5.17-14.87-5.17H5Z" transform="translate(-4.96 -3.54)"/><path class="cls-3" d="M154.61,131.59c0,7.37-6.34,11.67-14.87,11.67h-17.2v-23H140c9.26,0,14.65,4.3,14.65,11.15Zm5.69,36.23L143.46,146c8.6-1.17,14.94-6.05,14.94-14.58v-.15c0-8.53-7.22-14.5-18.22-14.5H118.75v51h3.79V146.68h16.69l16.26,21.14Zm-53-21.65V116.8h-3.79v29.81c0,12.32-6.63,18.59-17,18.59-10.79,0-17.28-6.93-17.28-18.95V116.8H65.46v29.81c0,14.29,8.68,22,20.92,22,12.4,0,20.92-7.8,20.92-22.45m-55-3.71c0,12.61-9,22.81-21.65,22.81S8.9,154.92,8.9,142.31v-.15c0-12.61,9-22.81,21.65-22.81s21.79,10.35,21.79,23Zm3.94-.15c.07-.07.07-.07,0-.15,0-13.92-10.13-26.24-25.59-26.24S5,128.39,5,142.31v.15c0,13.92,10.13,26.24,25.59,26.24s25.73-12.47,25.73-26.39" transform="translate(-4.96 -3.54)"/><path class="cls-3" d="M221.82,224v-3.5H188.94V200h29.23v-3.5H188.94V176.48h32.51V173h-36.3v51Zm-44.17-8-2.56-2.48c-5.17,5.11-10.2,8-17.56,8-12.18,0-21.58-10.06-21.58-23v-.15c0-12.83,9.26-22.81,21.5-22.81,7.66,0,12.76,3.2,17.21,7.5l2.69-2.77c-5.24-4.81-10.71-8.16-19.82-8.16-14.73,0-25.52,12-25.52,26.39v.14c0,14.66,10.79,26.25,25.37,26.25,9,0,14.87-3.58,20.27-8.9m-56.13-43h-3.79v51h3.79ZM103.3,198.64c0,12.61-9,22.82-21.65,22.82s-21.8-10.35-21.8-23v-.15c0-12.61,9-22.81,21.65-22.81s21.8,10.35,21.8,23Zm3.93-.14c.07-.07.07-.07,0-.15,0-13.92-10.13-26.24-25.58-26.24S55.91,184.58,55.91,198.5v.14c0,13.93,10.14,26.25,25.59,26.25s25.73-12.47,25.73-26.39M53.22,173h-4l-20,46.94L9.19,173H5l22.45,51.39h3.36Z" transform="translate(-4.96 -3.54)"/></g></svg>