<?xml version="1.0" encoding="UTF-8"?><svg id="Layer_1" xmlns="http://www.w3.org/2000/svg" xmlns:xlink="http://www.w3.org/1999/xlink" viewBox="0 0 1750 105"><defs><style>.cls-1{fill:none;}.cls-2{fill:#fff;}.cls-3{clip-path:url(#clippath);}</style><clipPath id="clippath"><rect class="cls-1" width="1750" height="105"/></clipPath></defs><g class="cls-3"><path class="cls-2" d="M1023.06,102.38c20.99,0,35.72-10.84,35.72-30.16v-.28c0-16.96-11.12-24.05-30.86-29.19-16.82-4.31-20.99-6.39-20.99-12.79v-.28c0-4.73,4.31-8.48,12.51-8.48s16.68,3.61,25.3,9.59l11.12-16.12c-9.87-7.92-21.96-12.37-36.14-12.37-19.88,0-34.05,11.68-34.05,29.33v.28c0,19.32,12.65,24.74,32.25,29.75,16.26,4.17,19.6,6.95,19.6,12.37v.28c0,5.7-5.28,9.17-14.04,9.17-11.12,0-20.29-4.59-29.05-11.82l-12.65,15.15c11.68,10.43,26.55,15.57,41.28,15.57M921.17,52.75v-29.75h16.54c10.7,0,17.38,5.14,17.38,14.73v.28c0,8.34-6.26,14.73-16.96,14.73h-16.96ZM899.76,100.99h21.41v-29.19h16.26c21.82,0,39.34-11.68,39.34-34.19v-.28c0-19.88-14.04-33.64-37.25-33.64h-39.75v97.3ZM824.15,60.26l12.93-31.55,12.93,31.55h-25.85ZM785.78,100.99h21.82l8.9-21.82h41.14l8.9,21.82h22.38L847.22,2.99h-19.74l-41.7,98ZM677.64,100.99h20.99v-63.11l27.11,41.14h.56l27.38-41.56v63.52h21.27V3.69h-23.07l-25.58,41.14-25.58-41.14h-23.07v97.3ZM582.01,82.92c-17.24,0-29.47-13.9-29.47-30.58v-.28c0-16.68,11.95-30.3,29.19-30.3s29.47,13.9,29.47,30.58v.28c0,16.68-11.95,30.3-29.19,30.3M581.73,102.66c30.02,0,51.85-22.66,51.85-50.32v-.28c0-27.66-21.54-50.04-51.57-50.04s-51.85,22.66-51.85,50.32v.28c0,27.66,21.54,50.04,51.57,50.04M488.6,102.66c18.77,0,29.89-6.67,39.89-17.37l-13.62-13.76c-7.65,6.95-14.46,11.4-25.58,11.4-16.68,0-28.22-13.9-28.22-30.58v-.28c0-16.68,11.81-30.3,28.22-30.3,9.73,0,17.38,4.17,24.88,10.98l13.62-15.71c-9.03-8.9-20.02-15.01-38.36-15.01-29.89,0-50.74,22.66-50.74,50.32v.28c0,27.94,21.27,50.04,49.9,50.04M380.74,82.92c-17.24,0-29.47-13.9-29.47-30.58v-.28c0-16.68,11.95-30.3,29.19-30.3s29.47,13.9,29.47,30.58v.28c0,16.68-11.95,30.3-29.19,30.3M380.46,102.66c30.02,0,51.85-22.66,51.85-50.32v-.28c0-27.66-21.55-50.04-51.57-50.04s-51.85,22.66-51.85,50.32v.28c0,27.66,21.55,50.04,51.57,50.04M287.33,102.66c18.76,0,29.88-6.67,39.89-17.37l-13.62-13.76c-7.64,6.95-14.46,11.4-25.58,11.4-16.68,0-28.22-13.9-28.22-30.58v-.28c0-16.68,11.82-30.3,28.22-30.3,9.73,0,17.38,4.17,24.88,10.98l13.62-15.71c-9.04-8.9-20.02-15.01-38.36-15.01-29.89,0-50.73,22.66-50.73,50.32v.28c0,27.94,21.27,50.04,49.9,50.04M204.35,100.99h21.41V3.69h-21.41v97.3ZM106.08,100.99h21.41v-39.06h39.48v39.06h21.41V3.69h-21.41v38.5h-39.48V3.69h-21.41v97.3ZM57.43,102.66c18.77,0,29.88-6.67,39.89-17.37l-13.62-13.76c-7.65,6.95-14.46,11.4-25.58,11.4-16.68,0-28.22-13.9-28.22-30.58v-.28c0-16.68,11.81-30.3,28.22-30.3,9.73,0,17.37,4.17,24.88,10.98l13.62-15.71c-9.04-8.9-20.02-15.01-38.36-15.01C28.38,2.02,7.53,24.68,7.53,52.34v.28c0,27.94,21.27,50.04,49.9,50.04"/><path class="cls-2" d="M1741.57,3.88h-8.62l-36.56,52.26-36.42-52.26h-9.04l41.7,58.8v38.5h7.23v-38.64l41.7-58.66ZM1644.55,10.55V3.88h-75.06v6.67h33.92v90.63h7.23V10.55h33.92ZM1552.12,3.88h-7.23v97.3h7.23V3.88ZM1529.6,85.89l-4.86-4.73c-9.87,9.73-19.46,15.15-33.5,15.15-23.21,0-41.14-19.18-41.14-43.78v-.28c0-24.46,17.65-43.51,41.01-43.51,14.59,0,24.32,6.12,32.8,14.32l5.14-5.28c-10.01-9.17-20.43-15.57-37.81-15.57-28.08,0-48.65,22.8-48.65,50.32v.28c0,27.94,20.57,50.04,48.37,50.04,17.24,0,28.36-6.81,38.64-16.96M1384.21,32.1c0,14.04-12.09,22.24-28.36,22.24h-32.8V10.55h33.22c17.65,0,27.94,8.2,27.94,21.27v.28ZM1395.05,101.18l-32.11-41.56c16.4-2.22,28.5-11.54,28.5-27.8v-.28c0-16.26-13.76-27.66-34.75-27.66h-40.87v97.3h7.23v-40.31h31.83l31,40.31h9.17ZM1294,59.9V3.88h-7.23v56.85c0,23.49-12.65,35.44-32.39,35.44s-32.94-13.2-32.94-36.14V3.88h-7.23v56.85c0,27.24,16.54,41.98,39.89,41.98s39.89-14.87,39.89-42.81M1189.19,52.81c0,24.05-17.24,43.51-41.28,43.51s-41.56-19.74-41.56-43.78v-.28c0-24.05,17.24-43.51,41.28-43.51s41.56,19.74,41.56,43.79v.28ZM1196.7,52.53q.14-.14,0-.28c0-26.55-19.32-50.04-48.79-50.04s-49.07,23.77-49.07,50.32v.28c0,26.55,19.32,50.04,48.79,50.04s49.07-23.77,49.07-50.32"/></g></svg>