<?xml version="1.0" encoding="UTF-8"?><svg id="Layer_1" xmlns="http://www.w3.org/2000/svg" xmlns:xlink="http://www.w3.org/1999/xlink" viewBox="0 0 340.16 240.95"><defs><style>.cls-1{fill:none;}.cls-2{fill:#fff;}.cls-3{clip-path:url(#clippath);}</style><clipPath id="clippath"><rect class="cls-1" width="340.16" height="240.95"/></clipPath></defs><rect y="0" width="340.16" height="240.94"/><g class="cls-3"><path class="cls-2" d="M310.6,45.97c-9.04,0-15.45-7.29-15.45-16.04v-.15c0-8.75,6.27-15.89,15.31-15.89s15.45,7.29,15.45,16.04v.15c0,8.75-6.27,15.89-15.31,15.89M310.46,56.32c15.75,0,27.19-11.88,27.19-26.39v-.15c0-14.51-11.3-26.24-27.04-26.24s-27.19,11.88-27.19,26.39v.15c0,14.51,11.3,26.24,27.04,26.24M260.89,56.32c9.84,0,15.67-3.5,20.92-9.11l-7.14-7.22c-4.01,3.64-7.58,5.98-13.41,5.98-8.75,0-14.8-7.29-14.8-16.04v-.15c0-8.75,6.2-15.89,14.8-15.89,5.1,0,9.11,2.19,13.05,5.76l7.14-8.24c-4.74-4.67-10.5-7.87-20.12-7.87-15.67,0-26.61,11.88-26.61,26.39v.15c0,14.65,11.15,26.24,26.17,26.24M203.6,45.97c-9.04,0-15.45-7.29-15.45-16.04v-.15c0-8.75,6.27-15.89,15.31-15.89s15.45,7.29,15.45,16.04v.15c0,8.75-6.27,15.89-15.31,15.89M203.45,56.32c15.74,0,27.19-11.88,27.19-26.39v-.15c0-14.51-11.3-26.24-27.04-26.24s-27.19,11.88-27.19,26.39v.15c0,14.51,11.3,26.24,27.04,26.24M153.88,56.32c9.84,0,15.67-3.5,20.92-9.11l-7.14-7.22c-4.01,3.64-7.58,5.98-13.41,5.98-8.75,0-14.8-7.29-14.8-16.04v-.15c0-8.75,6.2-15.89,14.8-15.89,5.1,0,9.11,2.19,13.05,5.76l7.14-8.24c-4.74-4.67-10.5-7.87-20.12-7.87-15.67,0-26.61,11.88-26.61,26.39v.15c0,14.65,11.15,26.24,26.17,26.24M109.64,55.44h11.23V4.42h-11.23v51.03ZM57.37,55.44h11.23v-20.48h20.7v20.48h11.22V4.42h-11.22v20.19h-20.7V4.42h-11.23v51.03ZM31.13,56.32c9.84,0,15.67-3.5,20.92-9.11l-7.14-7.22c-4.01,3.64-7.58,5.98-13.41,5.98-8.75,0-14.8-7.29-14.8-16.04v-.15c0-8.75,6.2-15.89,14.8-15.89,5.1,0,9.11,2.19,13.05,5.76l7.14-8.24c-4.74-4.67-10.5-7.87-20.12-7.87C15.89,3.54,4.96,15.42,4.96,29.93v.15c0,14.65,11.15,26.24,26.17,26.24"/><path class="cls-2" d="M177.35,113.67c11.01,0,18.73-5.69,18.73-15.82v-.15c0-8.89-5.83-12.61-16.18-15.31-8.82-2.26-11.01-3.35-11.01-6.71v-.15c0-2.48,2.26-4.45,6.56-4.45s8.75,1.9,13.27,5.03l5.83-8.46c-5.18-4.15-11.52-6.49-18.95-6.49-10.42,0-17.86,6.12-17.86,15.38v.15c0,10.13,6.63,12.97,16.91,15.6,8.53,2.19,10.28,3.65,10.28,6.49v.15c0,2.99-2.77,4.81-7.36,4.81-5.83,0-10.64-2.4-15.24-6.2l-6.63,7.95c6.12,5.47,13.92,8.16,21.65,8.16M126.84,87.65v-15.6h8.67c5.61,0,9.11,2.7,9.11,7.73v.15c0,4.37-3.28,7.73-8.89,7.73h-8.89ZM115.61,112.94h11.23v-15.31h8.53c11.44,0,20.63-6.12,20.63-17.93v-.14c0-10.42-7.36-17.64-19.54-17.64h-20.85v51.03ZM78.87,91.59l6.78-16.55,6.78,16.55h-13.56ZM58.76,112.94h11.44l4.67-11.44h21.58l4.67,11.44h11.74l-21.87-51.39h-10.35l-21.87,51.39ZM4.96,112.94h11.01v-33.09l14.21,21.58h.29l14.36-21.8v33.31h11.15v-51.03h-12.1l-13.41,21.58-13.41-21.58H4.96v51.03Z"/><path class="cls-2" d="M154.61,134.22c0,7.36-6.34,11.66-14.87,11.66h-17.2v-22.96h17.42c9.26,0,14.65,4.3,14.65,11.15v.15ZM160.3,170.44l-16.84-21.79c8.6-1.17,14.94-6.05,14.94-14.58v-.15c0-8.53-7.22-14.51-18.22-14.51h-21.43v51.03h3.79v-21.14h16.69l16.26,21.14h4.81ZM107.3,148.79v-29.38h-3.79v29.81c0,12.32-6.63,18.59-16.99,18.59s-17.28-6.93-17.28-18.95v-29.45h-3.79v29.81c0,14.29,8.67,22.01,20.92,22.01s20.92-7.8,20.92-22.45M52.34,145.08c0,12.61-9.04,22.82-21.65,22.82s-21.8-10.35-21.8-22.96v-.15c0-12.61,9.04-22.82,21.65-22.82s21.8,10.35,21.8,22.96v.15ZM56.28,144.93q.07-.07,0-.15c0-13.92-10.13-26.24-25.59-26.24s-25.73,12.46-25.73,26.39v.15c0,13.92,10.13,26.24,25.59,26.24s25.73-12.46,25.73-26.39"/><path class="cls-2" d="M136.09,227.94h3.79v-20.26l21.87-30.76h-4.52l-19.17,27.41-19.1-27.41h-4.74l21.87,30.83v20.19ZM89.3,227.94h3.79v-47.53h17.79v-3.5h-39.36v3.5h17.79v47.53ZM58.61,227.94h3.79v-51.03h-3.79v51.03ZM30.33,228.82c9.04,0,14.87-3.57,20.26-8.89l-2.55-2.48c-5.17,5.1-10.2,7.94-17.57,7.94-12.17,0-21.58-10.06-21.58-22.96v-.15c0-12.83,9.26-22.82,21.5-22.82,7.65,0,12.76,3.21,17.2,7.51l2.7-2.77c-5.25-4.81-10.71-8.16-19.83-8.16-14.73,0-25.51,11.95-25.51,26.39v.15c0,14.65,10.79,26.24,25.37,26.24"/></g></svg>