<svg id="Layer_1" data-name="Layer 1" xmlns="http://www.w3.org/2000/svg" xmlns:xlink="http://www.w3.org/1999/xlink" viewBox="0 0 1750 105"><defs><style>.cls-1{fill:none;}.cls-2{clip-path:url(#clip-path);}.cls-3{fill:#fff;}</style><clipPath id="clip-path"><rect class="cls-1" width="1750" height="105"/></clipPath></defs><rect width="1750" height="105"/><g class="cls-2"><path class="cls-3" d="M1023.06,102.38c21,0,35.72-10.84,35.72-30.17v-.27c0-17-11.12-24-30.86-29.19-16.82-4.31-21-6.4-21-12.79v-.28c0-4.73,4.31-8.48,12.51-8.48s16.68,3.62,25.3,9.59l11.12-16.12c-9.87-7.92-22-12.37-36.14-12.37-19.88,0-34.06,11.67-34.06,29.33v.27c0,19.33,12.65,24.75,32.25,29.75,16.27,4.17,19.6,6.95,19.6,12.37v.28c0,5.7-5.28,9.17-14,9.17-11.12,0-20.29-4.58-29.05-11.81L981.77,86.81a62,62,0,0,0,41.29,15.57M921.17,52.75V23h16.54c10.7,0,17.37,5.14,17.37,14.73V38c0,8.34-6.25,14.73-17,14.73ZM899.76,101h21.41V71.8h16.26c21.82,0,39.34-11.68,39.34-34.2v-.27c0-19.88-14-33.64-37.25-33.64H899.76ZM824.15,60.26l12.92-31.55L850,60.26ZM785.78,101h21.83l8.89-21.83h41.15L866.54,101h22.38L847.22,3H827.48Zm-108.14,0h21V37.88L725.74,79h.55l27.38-41.57V101h21.27V3.69H751.87L726.29,44.83,700.72,3.69H677.64ZM582,82.92c-17.23,0-29.47-13.9-29.47-30.58v-.28c0-16.68,12-30.3,29.19-30.3s29.47,13.9,29.47,30.58v.28c0,16.68-12,30.3-29.19,30.3m-.28,19.74c30,0,51.85-22.66,51.85-50.32v-.28C633.58,24.4,612,2,582,2s-51.84,22.66-51.84,50.32v.28c0,27.66,21.54,50,51.56,50m-93.13,0c18.77,0,29.89-6.68,39.9-17.38L514.88,71.52c-7.65,7-14.46,11.4-25.58,11.4-16.68,0-28.22-13.9-28.22-30.58v-.28c0-16.68,11.82-30.3,28.22-30.3,9.73,0,17.37,4.17,24.88,11L527.8,17c-9-8.89-20-15-38.36-15C459.55,2,438.7,24.68,438.7,52.34v.28c0,27.93,21.27,50,49.9,50M380.74,82.92c-17.23,0-29.47-13.9-29.47-30.58v-.28c0-16.68,12-30.3,29.19-30.3s29.47,13.9,29.47,30.58v.28c0,16.68-11.95,30.3-29.19,30.3m-.28,19.74c30,0,51.85-22.66,51.85-50.32v-.28c0-27.66-21.54-50-51.57-50s-51.85,22.66-51.85,50.32v.28c0,27.66,21.55,50,51.57,50m-93.13,0c18.77,0,29.89-6.68,39.9-17.38L313.6,71.52c-7.64,7-14.45,11.4-25.57,11.4-16.68,0-28.22-13.9-28.22-30.58v-.28c0-16.68,11.82-30.3,28.22-30.3,9.73,0,17.37,4.17,24.88,11L326.53,17c-9-8.89-20-15-38.36-15-29.89,0-50.74,22.66-50.74,50.32v.28c0,27.93,21.27,50,49.9,50m-83-1.67h21.41V3.69H204.35Zm-98.27,0h21.4V61.93H167V101h21.41V3.69H167v38.5H127.48V3.69h-21.4Zm-48.65,1.67c18.76,0,29.88-6.68,39.89-17.38L83.7,71.52c-7.64,7-14.46,11.4-25.58,11.4-16.68,0-28.21-13.9-28.21-30.58v-.28c0-16.68,11.81-30.3,28.21-30.3,9.73,0,17.38,4.17,24.89,11L96.63,17c-9-8.89-20-15-38.37-15C28.38,2,7.53,24.68,7.53,52.34v.28c0,27.93,21.27,50,49.9,50"/><path class="cls-3" d="M1741.57,3.88H1733L1696.4,56.14,1660,3.88h-9l41.7,58.8v38.5h7.23V62.54Zm-97,6.67V3.88h-75.06v6.67h33.92v90.63h7.22V10.55Zm-92.43-6.67h-7.23v97.3h7.23Zm-22.52,82-4.86-4.73c-9.87,9.73-19.46,15.15-33.5,15.15-23.22,0-41.15-19.18-41.15-43.78v-.28c0-24.46,17.66-43.5,41-43.5,14.59,0,24.32,6.11,32.8,14.31l5.14-5.28c-10-9.17-20.43-15.57-37.8-15.57-28.08,0-48.65,22.8-48.65,50.32v.28c0,27.94,20.57,50,48.37,50,17.23,0,28.35-6.81,38.64-17M1384.21,32.1c0,14-12.09,22.24-28.36,22.24h-32.8V10.55h33.22c17.65,0,27.94,8.2,27.94,21.27Zm10.84,69.08-32.11-41.56c16.4-2.22,28.5-11.54,28.5-27.8v-.28c0-16.26-13.76-27.66-34.75-27.66h-40.87v97.3h7.23V60.87h31.83l31,40.31ZM1294,59.9v-56h-7.23V60.73c0,23.49-12.65,35.45-32.39,35.45-20.57,0-32.94-13.21-32.94-36.14V3.88h-7.23V60.73c0,27.24,16.54,42,39.9,42,23.63,0,39.89-14.87,39.89-42.81m-104.81-7.09c0,24-17.23,43.5-41.28,43.5s-41.56-19.73-41.56-43.78v-.28c0-24,17.24-43.5,41.28-43.5s41.56,19.73,41.56,43.78Zm7.51-.28c.14-.14.14-.14,0-.28,0-26.55-19.32-50-48.79-50S1098.84,26,1098.84,52.53v.28c0,26.55,19.33,50,48.79,50s49.07-23.77,49.07-50.32"/></g></svg>