<svg id="Layer_1" data-name="Layer 1" xmlns="http://www.w3.org/2000/svg" xmlns:xlink="http://www.w3.org/1999/xlink" viewBox="0 0 340.16 240.94"><defs><style>.cls-1{fill:none;}.cls-2{clip-path:url(#clip-path);}.cls-3{fill:#fff;}</style><clipPath id="clip-path" transform="translate(0 0)"><rect class="cls-1" width="340.16" height="240.95"/></clipPath></defs><rect width="340.16" height="240.94"/><g class="cls-2"><path class="cls-3" d="M310.6,48.09c-9,0-15.45-7.29-15.45-16v-.15c0-8.75,6.27-15.89,15.31-15.89s15.45,7.29,15.45,16v.14c0,8.75-6.27,15.89-15.31,15.89m-.14,10.35c15.74,0,27.19-11.88,27.19-26.38v-.15c0-14.5-11.3-26.24-27-26.24s-27.19,11.88-27.19,26.39v.14c0,14.51,11.3,26.24,27,26.24m-49.57,0c9.84,0,15.67-3.49,20.92-9.11l-7.14-7.21c-4,3.64-7.58,6-13.42,6-8.74,0-14.79-7.29-14.79-16v-.15c0-8.75,6.19-15.89,14.79-15.89,5.11,0,9.12,2.19,13.05,5.76l7.15-8.24c-4.74-4.66-10.5-7.87-20.12-7.87-15.68,0-26.61,11.88-26.61,26.39v.14c0,14.65,11.15,26.24,26.17,26.24M203.6,48.09c-9,0-15.46-7.29-15.46-16v-.15c0-8.75,6.27-15.89,15.31-15.89s15.45,7.29,15.45,16v.14c0,8.75-6.27,15.89-15.3,15.89m-.15,10.35c15.75,0,27.19-11.88,27.19-26.38v-.15c0-14.5-11.3-26.24-27-26.24s-27.19,11.88-27.19,26.39v.14c0,14.51,11.29,26.24,27,26.24m-49.57,0c9.84,0,15.67-3.49,20.92-9.11l-7.14-7.21c-4,3.64-7.58,6-13.41,6-8.75,0-14.8-7.29-14.8-16v-.15c0-8.75,6.19-15.89,14.8-15.89,5.1,0,9.11,2.19,13,5.76l7.15-8.24c-4.74-4.66-10.5-7.87-20.12-7.87-15.67,0-26.61,11.88-26.61,26.39v.14c0,14.65,11.16,26.24,26.17,26.24m-44.24-.87h11.22v-51H109.64Zm-52.27,0H68.6V37.09H89.3V57.57h11.22v-51H89.3v20.2H68.6V6.54H57.37Zm-26.24.87C41,58.44,46.8,55,52.05,49.33l-7.14-7.21c-4,3.64-7.58,6-13.42,6-8.74,0-14.79-7.29-14.79-16v-.15C16.7,23.16,22.89,16,31.49,16c5.11,0,9.12,2.19,13.05,5.76l7.15-8.24C47,8.88,41.19,5.67,31.57,5.67,15.89,5.67,5,17.55,5,32.06v.14C5,46.85,16.11,58.44,31.13,58.44" transform="translate(0 0)"/><path class="cls-3" d="M201.26,104.28c-9,0-15.45-7.29-15.45-16V88.1c0-8.75,6.27-15.89,15.31-15.89s15.45,7.29,15.45,16v.14c0,8.75-6.27,15.89-15.31,15.89m-.14,10.35c15.74,0,27.19-11.88,27.19-26.38V88.1c0-14.51-11.3-26.24-27.05-26.24s-27.19,11.88-27.19,26.39v.14c0,14.51,11.3,26.24,27.05,26.24m-43.67-.87h11.23v-51H157.45Zm-41.18-10.13V72.87h8.67c9.19,0,15.38,6.34,15.38,15.38v.14c0,9-6.19,15.24-15.38,15.24ZM105,113.76h19.9c16,0,27.12-11.15,27.12-25.51V88.1c0-14.36-11.08-25.37-27.12-25.37H105ZM68.3,92.4l6.78-16.55L81.86,92.4ZM48.19,113.76H59.63l4.67-11.44H85.87l4.67,11.44h11.73L80.41,62.37H70.05Zm-32-26.24V72.87H27.34c5.47,0,8.82,2.47,8.82,7.29v.14c0,4.3-3.14,7.22-8.6,7.22ZM5,113.76H16.19V97.43H25l10.93,16.33H49.06L36.6,95.54C43.08,93.13,47.53,88,47.53,79.72v-.15c0-4.81-1.53-8.82-4.37-11.66-3.36-3.35-8.39-5.18-14.87-5.18H5Z" transform="translate(0 0)"/><path class="cls-3" d="M154.61,133.72c0,7.36-6.34,11.66-14.87,11.66h-17.2v-23H140c9.26,0,14.65,4.3,14.65,11.15ZM160.3,170l-16.84-21.8c8.6-1.16,14.94-6.05,14.94-14.58v-.14c0-8.53-7.22-14.51-18.22-14.51H118.75v51h3.79V148.81h16.69L155.49,170Zm-53-21.65V118.92h-3.79v29.82c0,12.32-6.63,18.58-17,18.58-10.79,0-17.28-6.92-17.28-18.95V118.92H65.46v29.82c0,14.28,8.68,22,20.92,22,12.4,0,20.92-7.8,20.92-22.45m-55-3.72c0,12.61-9,22.82-21.65,22.82S8.9,157.05,8.9,144.44v-.15c0-12.61,9-22.82,21.65-22.82s21.79,10.35,21.79,23Zm3.94-.14c.07-.08.07-.08,0-.15,0-13.92-10.13-26.24-25.59-26.24S5,130.51,5,144.44v.14c0,13.92,10.13,26.24,25.59,26.24s25.73-12.46,25.73-26.38" transform="translate(0 0)"/><path class="cls-3" d="M221.82,226.14v-3.5H188.94V202.16h29.23v-3.5H188.94v-20h32.51v-3.5h-36.3v51Zm-44.17-8-2.56-2.48c-5.17,5.1-10.2,8-17.56,8-12.18,0-21.58-10.06-21.58-23v-.14c0-12.83,9.26-22.82,21.5-22.82,7.66,0,12.76,3.21,17.21,7.51l2.69-2.77c-5.24-4.81-10.71-8.16-19.82-8.16-14.73,0-25.52,11.95-25.52,26.38v.15C132,215.42,142.8,227,157.38,227c9,0,14.87-3.57,20.27-8.89m-56.13-43h-3.79v51h3.79ZM103.3,200.77c0,12.61-9,22.82-21.65,22.82s-21.8-10.35-21.8-23v-.14c0-12.61,9-22.82,21.65-22.82s21.8,10.35,21.8,23Zm3.93-.15c.07-.07.07-.07,0-.14,0-13.92-10.13-26.24-25.58-26.24S55.91,186.7,55.91,200.62v.15C55.91,214.69,66.05,227,81.5,227s25.73-12.46,25.73-26.39m-54-25.51h-4l-20,46.95-20-46.95H5L27.41,226.5h3.36Z" transform="translate(0 0)"/></g></svg>